<svg width="70" height="70" viewBox="0 0 70 70" fill="none" xmlns="http://www.w3.org/2000/svg">
<path d="M58.3333 23.3333L40.8333 5.83331H17.5C15.9529 5.83331 14.4692 6.44789 13.3752 7.54186C12.2812 8.63582 11.6667 10.1195 11.6667 11.6666V58.3333C11.6667 59.8804 12.2812 61.3641 13.3752 62.4581C14.4692 63.5521 15.9529 64.1666 17.5 64.1666H52.5C54.0471 64.1666 55.5308 63.5521 56.6248 62.4581C57.7187 61.3641 58.3333 59.8804 58.3333 58.3333V23.3333ZM26.25 55.4166H20.4167V29.1666H26.25V55.4166ZM37.9167 55.4166H32.0833V37.9166H37.9167V55.4166ZM49.5833 55.4166H43.75V46.6666H49.5833V55.4166ZM40.8333 26.25H37.9167V11.6666L52.5 26.25H40.8333Z" fill="#1DB207"/>
</svg>
