<svg width="58" height="58" viewBox="0 0 58 58" fill="none" xmlns="http://www.w3.org/2000/svg">
<path d="M50.75 5.4375L47.125 3.625L43.5 5.4375L39.875 3.625L36.25 5.4375L32.625 3.625L29 5.4375L25.375 3.625L21.75 5.4375L16.3125 3.625V32.6307H41.6875V48.0312C41.6875 51.535 45.4337 54.375 48.9375 54.375H50.2969C53.8007 54.375 56.1875 51.535 56.1875 48.0312V3.625L50.75 5.4375ZM30.8691 27.1875L30.8125 23.5625H48.8809L48.9375 27.1875H30.8691ZM23.6191 18.125L23.5625 14.5H48.8809L48.9375 18.125H23.6191Z" fill="#1DB207"/>
<path d="M38.0625 48.0312V36.25H1.8125V39.875C1.8125 45.6014 2.46727 47.9882 3.45055 49.8018C5.11918 52.8797 8.14039 54.375 12.6875 54.375H41.6875C41.6875 54.375 38.0625 52.1094 38.0625 48.0312Z" fill="#1DB207"/>
</svg>
