<svg width="65" height="63" viewBox="0 0 65 63" fill="none" xmlns="http://www.w3.org/2000/svg">
<g clip-path="url(#clip0_124_96)">
<path fill-rule="evenodd" clip-rule="evenodd" d="M32.7327 22.1441C33.5671 22.0699 34.4047 22.2442 35.1396 22.6449C35.8744 23.0455 36.4735 23.6545 36.8609 24.3948C37.2482 25.135 37.4065 25.9732 37.3156 26.8032C37.2247 27.6331 36.8887 28.4175 36.3502 29.057C35.8117 29.6965 35.0949 30.1623 34.2906 30.3955C33.4863 30.6286 32.6307 30.6186 31.8321 30.3668C31.0335 30.1149 30.3279 29.6324 29.8045 28.9805C29.2812 28.3286 28.9638 27.5366 28.8924 26.7048C28.797 25.5928 29.1476 24.4886 29.8674 23.6337C30.5872 22.7789 31.6175 22.2433 32.7327 22.1441ZM0.528971 2.86821H6.08846C6.22875 2.86821 6.3633 2.92376 6.4625 3.02263C6.5617 3.12151 6.61743 3.25562 6.61743 3.39545V16.819C6.61743 16.9588 6.5617 17.0929 6.4625 17.1918C6.3633 17.2907 6.22875 17.3462 6.08846 17.3462H0.528971C0.388679 17.3462 0.254134 17.2907 0.154932 17.1918C0.0557308 17.0929 0 16.9588 0 16.819V3.41127C0 3.27143 0.0557308 3.13733 0.154932 3.03845C0.254134 2.93957 0.388679 2.88403 0.528971 2.88403V2.86821ZM8.0245 5.27243C8.00906 5.04131 8.07041 4.81155 8.19906 4.61865C8.55347 4.13886 9.42098 4.28121 9.97111 4.28121C10.542 4.29789 11.113 4.25371 11.6744 4.1494C12.5021 3.933 13.3148 3.66355 14.1077 3.34273C17.1175 2.28824 19.683 1.60283 22.8198 0.232005C23.1388 0.0818745 23.4868 0.00313572 23.8396 0.00131408C24.1923 -0.000507549 24.5412 0.0746321 24.8617 0.22146C27.8049 1.29147 30.6477 2.61823 33.3569 4.18631C33.8951 4.46622 34.3358 4.90181 34.6212 5.43587C36.3615 7.95608 37.8479 10.5079 39.2814 13.065C39.7628 13.9614 39.9585 14.8155 39.6305 15.348C38.2869 17.5466 35.8695 14.4201 33.2829 12.3375C32.1879 11.4622 30.6962 10.6819 29.4161 9.79615C27.7763 9.11074 26.9987 8.45696 25.2372 8.08789C22.5289 7.85591 22.3067 11.7311 25.8667 11.8735C28.2841 11.9684 33.2723 14.1512 34.6582 16.16C35.9648 18.0369 35.2454 19.8823 32.5899 19.8137L30.3682 19.4025C26.8347 18.7382 26.9299 18.6063 23.2483 19.2865C21.2752 19.6556 19.2017 20.0352 17.1598 19.6556C15.922 19.4236 15.2714 18.9332 14.1606 18.0738C13.6112 17.6107 13.0136 17.2077 12.3779 16.8717C11.8718 16.5716 11.3274 16.341 10.7593 16.1863C9.91292 15.986 8.72274 16.2707 8.2255 15.5431C8.09222 15.3257 8.02259 15.0755 8.0245 14.8208V5.27243ZM65 43.8348H56.7586V59.7259H65V43.8348ZM54.9495 58.3919V45.1107H48.9616C46.4225 45.5642 43.8835 46.935 41.3391 48.5325H36.6842C34.5683 48.6591 33.4733 50.7839 35.5257 52.1863C37.155 53.3779 39.3079 53.3093 41.519 53.1143C43.0424 53.0352 43.1059 55.0756 41.519 55.0861C40.99 55.1283 40.3658 54.9965 39.8421 54.9965C37.0862 54.9965 34.8222 54.4693 33.431 52.3023L32.7327 50.6784L25.8085 47.2566C22.3438 46.123 19.884 49.7346 22.4337 52.2443C27.262 55.759 32.4269 58.7895 37.8532 61.2918C41.6777 63.6063 45.4968 63.5273 49.316 61.2918L54.9548 58.3919H54.9495ZM41.8575 14.2355L55.542 35.2197L39.8421 45.1213L38.4985 43.0598L49.7233 35.9895L49.8714 35.8998C50.1274 35.7333 50.348 35.5182 50.5206 35.2667C50.6932 35.0153 50.8143 34.7323 50.8772 34.4342C50.9401 34.136 50.9434 33.8284 50.887 33.529C50.8306 33.2295 50.7156 32.9441 50.5485 32.6889L49.9032 31.6977H49.9349L46.8193 26.9842L40.625 17.4939C40.9311 17.1871 41.1976 16.8435 41.4185 16.471C41.8212 15.7994 41.9765 15.0089 41.8575 14.2355ZM38.9958 18.2953L49.316 34.1125L33.6214 44.0246L19.2017 21.8805C19.6037 21.8805 20.0004 21.8489 20.3971 21.812C21.0795 21.7487 21.7407 21.6538 22.3808 21.5431L32.8756 37.4341C33.4912 37.0476 34.2353 36.9199 34.9452 37.079C35.655 37.2381 36.2727 37.671 36.663 38.283L42.8467 34.3498C42.6548 34.0456 42.525 33.7067 42.4648 33.3525C42.4045 32.9982 42.415 32.6356 42.4956 32.2854C42.5762 31.9353 42.7253 31.6044 42.9344 31.3117C43.1435 31.019 43.4085 30.7704 43.7142 30.58L36.7371 20.0352C36.7688 19.993 36.7952 19.9455 36.8217 19.9034C36.86 19.8473 36.8954 19.7892 36.9275 19.7294C37.1995 19.2112 37.348 18.6374 37.3612 18.0527C37.8787 18.263 38.4393 18.3462 38.9958 18.2953Z" fill="#1DB207"/>
</g>
<defs>
<clipPath id="clip0_124_96">
<rect width="65" height="63" fill="white"/>
</clipPath>
</defs>
</svg>
