<svg width="60" height="60" viewBox="0 0 60 60" fill="none" xmlns="http://www.w3.org/2000/svg">
<g clip-path="url(#clip0_124_85)">
<path d="M48.375 25.1C47.5352 20.8443 45.244 17.0121 41.8927 14.2581C38.5413 11.5041 34.3378 9.99902 30 10C22.775 10 16.5 14.1 13.375 20.1C9.70058 20.4971 6.30252 22.238 3.83372 24.9883C1.36493 27.7386 -0.000429254 31.3042 1.01232e-07 35C1.01232e-07 43.275 6.725 50 15 50H47.5C54.4 50 60 44.4 60 37.5C60 30.9 54.875 25.55 48.375 25.1ZM42.5 32.5L30 45L17.5 32.5H25V22.5H35V32.5H42.5Z" fill="#1DB207"/>
</g>
<defs>
<clipPath id="clip0_124_85">
<rect width="60" height="60" fill="white"/>
</clipPath>
</defs>
</svg>
