<svg width="70" height="70" viewBox="0 0 70 70" fill="none" xmlns="http://www.w3.org/2000/svg">
<path d="M11.6666 23.3333L29.1666 5.83331H52.5C54.0471 5.83331 55.5308 6.44789 56.6248 7.54186C57.7187 8.63582 58.3333 10.1196 58.3333 11.6666V58.3333C58.3333 59.8804 57.7187 61.3641 56.6248 62.4581C55.5308 63.5521 54.0471 64.1666 52.5 64.1666H17.5C15.9529 64.1666 14.4692 63.5521 13.3752 62.4581C12.2812 61.3641 11.6666 59.8804 11.6666 58.3333V23.3333ZM43.75 55.4167H49.5833V29.1666H43.75V55.4167ZM32.0833 55.4167H37.9166V37.9166H32.0833V55.4167ZM20.4166 55.4167H26.25V46.6666H20.4166V55.4167ZM29.1666 26.25H32.0833V11.6666L17.5 26.25H29.1666Z" fill="#1DB207"/>
<rect x="32" y="29" width="20" height="31" fill="#1DB207"/>
<path d="M33 56C32.45 56 31.9793 55.8043 31.588 55.413C31.1967 55.0217 31.0007 54.5507 31 54V43H33V54H50V56H33ZM37 52C36.45 52 35.9793 51.8043 35.588 51.413C35.1967 51.0217 35.0007 50.5507 35 50V42C35 41.45 35.196 40.9793 35.588 40.588C35.98 40.1967 36.4507 40.0007 37 40H51C51.55 40 52.021 40.196 52.413 40.588C52.805 40.98 53.0007 41.4507 53 42V50C53 50.55 52.8043 51.021 52.413 51.413C52.0217 51.805 51.5507 52.0007 51 52H37ZM39 50C39 49.45 38.8043 48.9793 38.413 48.588C38.0217 48.1967 37.5507 48.0007 37 48V50H39ZM49 50H51V48C50.45 48 49.9793 48.196 49.588 48.588C49.1967 48.98 49.0007 49.4507 49 50ZM44 49C44.8333 49 45.5417 48.7083 46.125 48.125C46.7083 47.5417 47 46.8333 47 46C47 45.1667 46.7083 44.4583 46.125 43.875C45.5417 43.2917 44.8333 43 44 43C43.1667 43 42.4583 43.2917 41.875 43.875C41.2917 44.4583 41 45.1667 41 46C41 46.8333 41.2917 47.5417 41.875 48.125C42.4583 48.7083 43.1667 49 44 49ZM37 44C37.55 44 38.021 43.8043 38.413 43.413C38.805 43.0217 39.0007 42.5507 39 42H37V44ZM51 44V42H49C49 42.55 49.196 43.021 49.588 43.413C49.98 43.805 50.4507 44.0007 51 44Z" fill="white"/>
</svg>
