<svg width="55" height="55" viewBox="0 0 55 55" fill="none" xmlns="http://www.w3.org/2000/svg">
<g filter="url(#filter0_dd_149_106)">
<rect x="8" y="4" width="39" height="39" rx="8" fill="white"/>
</g>
<path d="M16.9504 22.1957H22.8511C24.4738 22.1957 25.8014 20.9362 25.8014 19.3968V13.7989C25.8014 12.2595 24.4738 11 22.8511 11H16.9504C15.3277 11 14 12.2595 14 13.7989V19.3968C14 20.9362 15.3277 22.1957 16.9504 22.1957ZM16.9504 13.7989H22.8511V19.3968H16.9504V13.7989ZM16.9504 36.1904H22.8511C24.4738 36.1904 25.8014 34.9309 25.8014 33.3915V27.7936C25.8014 26.2542 24.4738 24.9947 22.8511 24.9947H16.9504C15.3277 24.9947 14 26.2542 14 27.7936V33.3915C14 34.9309 15.3277 36.1904 16.9504 36.1904ZM16.9504 27.7936H22.8511V33.3915H16.9504V27.7936ZM28.7518 13.7989V19.3968C28.7518 20.9362 30.0794 22.1957 31.7021 22.1957H37.6028C39.2255 22.1957 40.5532 20.9362 40.5532 19.3968V13.7989C40.5532 12.2595 39.2255 11 37.6028 11H31.7021C30.0794 11 28.7518 12.2595 28.7518 13.7989ZM37.6028 19.3968H31.7021V13.7989H37.6028V19.3968ZM40.5532 35.4907V34.0912C40.5532 33.6994 40.2287 33.3915 39.8156 33.3915H38.3404C37.9274 33.3915 37.6028 33.6994 37.6028 34.0912V35.4907C37.6028 35.8825 37.9274 36.1904 38.3404 36.1904H39.8156C40.2287 36.1904 40.5532 35.8825 40.5532 35.4907ZM28.7518 25.6944V27.0939C28.7518 27.4857 29.0763 27.7936 29.4894 27.7936H30.9645C31.3776 27.7936 31.7021 27.4857 31.7021 27.0939V25.6944C31.7021 25.3026 31.3776 24.9947 30.9645 24.9947H29.4894C29.0763 24.9947 28.7518 25.3026 28.7518 25.6944ZM33.9149 27.7936H32.4397C32.0267 27.7936 31.7021 28.1015 31.7021 28.4933V29.8928C31.7021 30.2847 32.0267 30.5926 32.4397 30.5926H33.9149C34.3279 30.5926 34.6525 30.2847 34.6525 29.8928V28.4933C34.6525 28.1015 34.3279 27.7936 33.9149 27.7936ZM28.7518 31.2923V32.6918C28.7518 33.0836 29.0763 33.3915 29.4894 33.3915H30.9645C31.3776 33.3915 31.7021 33.0836 31.7021 32.6918V31.2923C31.7021 30.9004 31.3776 30.5926 30.9645 30.5926H29.4894C29.0763 30.5926 28.7518 30.9004 28.7518 31.2923ZM32.4397 36.1904H33.9149C34.3279 36.1904 34.6525 35.8825 34.6525 35.4907V34.0912C34.6525 33.6994 34.3279 33.3915 33.9149 33.3915H32.4397C32.0267 33.3915 31.7021 33.6994 31.7021 34.0912V35.4907C31.7021 35.8825 32.0267 36.1904 32.4397 36.1904ZM35.3901 33.3915H36.8652C37.2783 33.3915 37.6028 33.0836 37.6028 32.6918V31.2923C37.6028 30.9004 37.2783 30.5926 36.8652 30.5926H35.3901C34.977 30.5926 34.6525 30.9004 34.6525 31.2923V32.6918C34.6525 33.0836 34.977 33.3915 35.3901 33.3915ZM36.8652 24.9947H35.3901C34.977 24.9947 34.6525 25.3026 34.6525 25.6944V27.0939C34.6525 27.4857 34.977 27.7936 35.3901 27.7936H36.8652C37.2783 27.7936 37.6028 27.4857 37.6028 27.0939V25.6944C37.6028 25.3026 37.2783 24.9947 36.8652 24.9947ZM38.3404 30.5926H39.8156C40.2287 30.5926 40.5532 30.2847 40.5532 29.8928V28.4933C40.5532 28.1015 40.2287 27.7936 39.8156 27.7936H38.3404C37.9274 27.7936 37.6028 28.1015 37.6028 28.4933V29.8928C37.6028 30.2847 37.9274 30.5926 38.3404 30.5926Z" fill="#1DB207"/>
<defs>
<filter id="filter0_dd_149_106" x="0" y="0" width="55" height="55" filterUnits="userSpaceOnUse" color-interpolation-filters="sRGB">
<feFlood flood-opacity="0" result="BackgroundImageFix"/>
<feColorMatrix in="SourceAlpha" type="matrix" values="0 0 0 0 0 0 0 0 0 0 0 0 0 0 0 0 0 0 127 0" result="hardAlpha"/>
<feOffset dy="4"/>
<feGaussianBlur stdDeviation="4"/>
<feColorMatrix type="matrix" values="0 0 0 0 0 0 0 0 0 0 0 0 0 0 0 0 0 0 0.06 0"/>
<feBlend mode="normal" in2="BackgroundImageFix" result="effect1_dropShadow_149_106"/>
<feColorMatrix in="SourceAlpha" type="matrix" values="0 0 0 0 0 0 0 0 0 0 0 0 0 0 0 0 0 0 127 0" result="hardAlpha"/>
<feOffset/>
<feGaussianBlur stdDeviation="2"/>
<feColorMatrix type="matrix" values="0 0 0 0 0 0 0 0 0 0 0 0 0 0 0 0 0 0 0.04 0"/>
<feBlend mode="normal" in2="effect1_dropShadow_149_106" result="effect2_dropShadow_149_106"/>
<feBlend mode="normal" in="SourceGraphic" in2="effect2_dropShadow_149_106" result="shape"/>
</filter>
</defs>
</svg>
