<svg width="27" height="26" viewBox="0 0 27 26" fill="none" xmlns="http://www.w3.org/2000/svg">
<path d="M2.95035 11.1957H8.85106C10.4738 11.1957 11.8014 9.93622 11.8014 8.39681V2.79894C11.8014 1.25952 10.4738 0 8.85106 0H2.95035C1.32766 0 0 1.25952 0 2.79894V8.39681C0 9.93622 1.32766 11.1957 2.95035 11.1957ZM2.95035 2.79894H8.85106V8.39681H2.95035V2.79894ZM2.95035 25.1904H8.85106C10.4738 25.1904 11.8014 23.9309 11.8014 22.3915V16.7936C11.8014 15.2542 10.4738 13.9947 8.85106 13.9947H2.95035C1.32766 13.9947 0 15.2542 0 16.7936V22.3915C0 23.9309 1.32766 25.1904 2.95035 25.1904ZM2.95035 16.7936H8.85106V22.3915H2.95035V16.7936ZM14.7518 2.79894V8.39681C14.7518 9.93622 16.0794 11.1957 17.7021 11.1957H23.6028C25.2255 11.1957 26.5532 9.93622 26.5532 8.39681V2.79894C26.5532 1.25952 25.2255 0 23.6028 0H17.7021C16.0794 0 14.7518 1.25952 14.7518 2.79894ZM23.6028 8.39681H17.7021V2.79894H23.6028V8.39681ZM26.5532 24.4907V23.0912C26.5532 22.6994 26.2287 22.3915 25.8156 22.3915H24.3404C23.9274 22.3915 23.6028 22.6994 23.6028 23.0912V24.4907C23.6028 24.8825 23.9274 25.1904 24.3404 25.1904H25.8156C26.2287 25.1904 26.5532 24.8825 26.5532 24.4907ZM14.7518 14.6944V16.0939C14.7518 16.4857 15.0763 16.7936 15.4894 16.7936H16.9645C17.3776 16.7936 17.7021 16.4857 17.7021 16.0939V14.6944C17.7021 14.3026 17.3776 13.9947 16.9645 13.9947H15.4894C15.0763 13.9947 14.7518 14.3026 14.7518 14.6944ZM19.9149 16.7936H18.4397C18.0267 16.7936 17.7021 17.1015 17.7021 17.4933V18.8928C17.7021 19.2847 18.0267 19.5926 18.4397 19.5926H19.9149C20.3279 19.5926 20.6525 19.2847 20.6525 18.8928V17.4933C20.6525 17.1015 20.3279 16.7936 19.9149 16.7936ZM14.7518 20.2923V21.6918C14.7518 22.0836 15.0763 22.3915 15.4894 22.3915H16.9645C17.3776 22.3915 17.7021 22.0836 17.7021 21.6918V20.2923C17.7021 19.9004 17.3776 19.5926 16.9645 19.5926H15.4894C15.0763 19.5926 14.7518 19.9004 14.7518 20.2923ZM18.4397 25.1904H19.9149C20.3279 25.1904 20.6525 24.8825 20.6525 24.4907V23.0912C20.6525 22.6994 20.3279 22.3915 19.9149 22.3915H18.4397C18.0267 22.3915 17.7021 22.6994 17.7021 23.0912V24.4907C17.7021 24.8825 18.0267 25.1904 18.4397 25.1904ZM21.3901 22.3915H22.8652C23.2783 22.3915 23.6028 22.0836 23.6028 21.6918V20.2923C23.6028 19.9004 23.2783 19.5926 22.8652 19.5926H21.3901C20.977 19.5926 20.6525 19.9004 20.6525 20.2923V21.6918C20.6525 22.0836 20.977 22.3915 21.3901 22.3915ZM22.8652 13.9947H21.3901C20.977 13.9947 20.6525 14.3026 20.6525 14.6944V16.0939C20.6525 16.4857 20.977 16.7936 21.3901 16.7936H22.8652C23.2783 16.7936 23.6028 16.4857 23.6028 16.0939V14.6944C23.6028 14.3026 23.2783 13.9947 22.8652 13.9947ZM24.3404 19.5926H25.8156C26.2287 19.5926 26.5532 19.2847 26.5532 18.8928V17.4933C26.5532 17.1015 26.2287 16.7936 25.8156 16.7936H24.3404C23.9274 16.7936 23.6028 17.1015 23.6028 17.4933V18.8928C23.6028 19.2847 23.9274 19.5926 24.3404 19.5926Z" fill="#1DB207"/>
</svg>
